<svg xmlns="http://www.w3.org/2000/svg" xmlns:xlink="http://www.w3.org/1999/xlink" width="500" zoomAndPan="magnify" viewBox="0 0 375 374.999991" height="500" preserveAspectRatio="xMidYMid meet" version="1.0"><defs><g/><clipPath id="ae039a7b05"><path d="M 112.554688 65.234375 L 163 65.234375 L 163 116 L 112.554688 116 Z M 112.554688 65.234375 " clip-rule="nonzero"/></clipPath><clipPath id="b32827b214"><path d="M 112.554688 65.234375 L 163 65.234375 L 163 116 L 112.554688 116 Z M 112.554688 65.234375 " clip-rule="nonzero"/></clipPath><clipPath id="6bec18278d"><path d="M 162 65.234375 L 213 65.234375 L 213 116 L 162 116 Z M 162 65.234375 " clip-rule="nonzero"/></clipPath><clipPath id="905875b8a7"><path d="M 212 65.234375 L 262.554688 65.234375 L 262.554688 116 L 212 116 Z M 212 65.234375 " clip-rule="nonzero"/></clipPath><clipPath id="c434c8bae3"><path d="M 112.554688 115 L 163 115 L 163 166 L 112.554688 166 Z M 112.554688 115 " clip-rule="nonzero"/></clipPath><clipPath id="91cab80616"><path d="M 112.554688 165 L 163 165 L 163 215.234375 L 112.554688 215.234375 Z M 112.554688 165 " clip-rule="nonzero"/></clipPath><clipPath id="e2242e95a2"><path d="M 112.554688 165 L 138 165 L 138 191 L 112.554688 191 Z M 112.554688 165 " clip-rule="nonzero"/></clipPath></defs><g clip-path="url(#ae039a7b05)"><path fill="#1d3c59" d="M 162.558594 65.234375 L 162.558594 115.238281 L 112.554688 115.238281 L 112.554688 65.234375 Z M 162.558594 65.234375 " fill-opacity="1" fill-rule="evenodd"/></g><path fill="#fbba52" d="M 116.652344 90.234375 C 116.652344 101.742188 126.035156 111.140625 137.554688 111.140625 C 149.0625 111.140625 158.449219 101.742188 158.449219 90.234375 C 158.449219 78.726562 149.0625 69.332031 137.554688 69.332031 C 126.035156 69.332031 116.652344 78.726562 116.652344 90.234375 Z M 116.652344 90.234375 " fill-opacity="1" fill-rule="evenodd"/><path fill="#eae7d6" d="M 152.335938 75.457031 L 122.777344 105.015625 C 126.558594 108.796875 131.785156 111.140625 137.554688 111.140625 C 149.09375 111.140625 158.449219 101.773438 158.449219 90.234375 C 158.449219 84.464844 156.117188 79.238281 152.335938 75.457031 Z M 152.335938 75.457031 " fill-opacity="1" fill-rule="evenodd"/><g clip-path="url(#b32827b214)"><path fill="#007d82" d="M 158.449219 90.234375 C 158.449219 101.773438 149.09375 111.140625 137.554688 111.140625 C 131.785156 111.140625 126.558594 108.796875 122.777344 105.015625 L 112.554688 115.238281 L 162.558594 115.238281 L 162.558594 65.230469 L 152.335938 75.453125 C 156.117188 79.238281 158.449219 84.464844 158.449219 90.234375 Z M 158.449219 90.234375 " fill-opacity="1" fill-rule="evenodd"/></g><g clip-path="url(#6bec18278d)"><path fill="#fbba52" d="M 162.558594 115.238281 L 162.558594 65.234375 L 212.550781 65.234375 C 212.550781 92.847656 190.171875 115.238281 162.558594 115.238281 Z M 162.558594 115.238281 " fill-opacity="1" fill-rule="evenodd"/></g><g clip-path="url(#905875b8a7)"><path fill="#1d3c59" d="M 212.550781 65.234375 L 212.550781 115.238281 L 262.554688 115.238281 C 262.554688 87.621094 240.164062 65.234375 212.550781 65.234375 Z M 212.550781 65.234375 " fill-opacity="1" fill-rule="evenodd"/></g><path fill="#eae7d6" d="M 212.550781 91.289062 L 212.550781 115.238281 L 236.496094 115.238281 C 236.496094 102.015625 225.773438 91.289062 212.550781 91.289062 Z M 212.550781 91.289062 " fill-opacity="1" fill-rule="evenodd"/><path fill="#007d82" d="M 212.550781 165.230469 C 180.691406 163.757812 166.949219 144.167969 162.558594 115.238281 C 191.480469 119.625 211.078125 133.371094 212.550781 165.230469 Z M 212.550781 165.230469 " fill-opacity="1" fill-rule="evenodd"/><g clip-path="url(#c434c8bae3)"><path fill="#ff6e41" d="M 162.558594 115.238281 L 162.558594 165.230469 L 112.554688 165.230469 L 112.554688 115.238281 Z M 162.558594 115.238281 " fill-opacity="1" fill-rule="evenodd"/></g><path fill="#fbba52" d="M 119.085938 165.230469 C 119.085938 153.230469 123.945312 142.359375 131.816406 134.5 C 139.675781 126.628906 150.546875 121.769531 162.558594 121.769531 L 162.558594 123.023438 C 150.890625 123.023438 140.347656 127.746094 132.707031 135.386719 C 125.074219 143.027344 120.351562 153.574219 120.351562 165.230469 Z M 119.085938 165.230469 " fill-opacity="1" fill-rule="nonzero"/><path fill="#fbba52" d="M 122.964844 165.230469 C 122.964844 154.308594 127.394531 144.410156 134.566406 137.238281 C 141.726562 130.078125 151.625 125.648438 162.558594 125.648438 L 162.558594 126.914062 C 151.96875 126.914062 142.382812 131.199219 135.453125 138.136719 C 128.523438 145.066406 124.230469 154.652344 124.230469 165.230469 Z M 122.964844 165.230469 " fill-opacity="1" fill-rule="nonzero"/><path fill="#fbba52" d="M 126.851562 165.230469 C 126.851562 155.375 130.84375 146.449219 137.304688 139.988281 C 143.765625 133.527344 152.691406 129.535156 162.558594 129.535156 L 162.558594 130.800781 C 153.046875 130.800781 144.433594 134.648438 138.203125 140.886719 C 131.972656 147.117188 128.117188 155.730469 128.117188 165.230469 Z M 126.851562 165.230469 " fill-opacity="1" fill-rule="nonzero"/><path fill="#fbba52" d="M 130.742188 165.230469 C 130.742188 156.449219 134.292969 148.496094 140.054688 142.738281 C 145.8125 136.976562 153.765625 133.414062 162.558594 133.414062 L 162.558594 134.679688 C 154.113281 134.679688 146.480469 138.105469 140.953125 143.625 C 135.421875 149.15625 131.996094 156.796875 131.996094 165.230469 Z M 130.742188 165.230469 " fill-opacity="1" fill-rule="nonzero"/><path fill="#fbba52" d="M 134.617188 165.230469 C 134.617188 157.527344 137.742188 150.535156 142.804688 145.484375 C 147.863281 140.425781 154.84375 137.300781 162.558594 137.300781 L 162.558594 138.566406 C 155.1875 138.566406 148.519531 141.554688 143.691406 146.375 C 138.871094 151.203125 135.882812 157.871094 135.882812 165.230469 Z M 134.617188 165.230469 " fill-opacity="1" fill-rule="nonzero"/><path fill="#fbba52" d="M 138.507812 165.230469 C 138.507812 158.59375 141.191406 152.582031 145.550781 148.234375 C 149.898438 143.875 155.910156 141.191406 162.558594 141.191406 L 162.558594 142.453125 C 156.265625 142.453125 150.570312 145.003906 146.441406 149.121094 C 142.320312 153.25 139.773438 158.949219 139.773438 165.230469 Z M 138.507812 165.230469 " fill-opacity="1" fill-rule="nonzero"/><path fill="#fbba52" d="M 142.382812 165.230469 C 142.382812 159.667969 144.644531 154.621094 148.289062 150.972656 C 151.949219 147.324219 156.988281 145.066406 162.558594 145.066406 L 162.558594 146.332031 C 157.332031 146.332031 152.605469 148.453125 149.1875 151.871094 C 145.769531 155.289062 143.648438 160.015625 143.648438 165.230469 Z M 142.382812 165.230469 " fill-opacity="1" fill-rule="nonzero"/><path fill="#fbba52" d="M 146.273438 165.230469 C 146.273438 160.734375 148.089844 156.667969 151.039062 153.722656 C 153.988281 150.773438 158.050781 148.957031 162.558594 148.957031 L 162.558594 150.21875 C 158.40625 150.21875 154.65625 151.902344 151.9375 154.621094 C 149.21875 157.339844 147.539062 161.089844 147.539062 165.230469 Z M 146.273438 165.230469 " fill-opacity="1" fill-rule="nonzero"/><path fill="#fbba52" d="M 150.160156 165.230469 C 150.160156 161.8125 151.539062 158.71875 153.789062 156.472656 C 156.035156 154.222656 159.128906 152.84375 162.558594 152.84375 L 162.558594 154.097656 C 159.472656 154.097656 156.695312 155.351562 154.6875 157.359375 C 152.667969 159.375 151.425781 162.15625 151.425781 165.230469 Z M 150.160156 165.230469 " fill-opacity="1" fill-rule="nonzero"/><path fill="#fbba52" d="M 154.039062 165.230469 C 154.039062 162.886719 154.988281 160.757812 156.539062 159.21875 C 158.074219 157.671875 160.207031 156.722656 162.558594 156.722656 L 162.558594 157.988281 C 160.550781 157.988281 158.742188 158.800781 157.425781 160.109375 C 156.121094 161.425781 155.304688 163.234375 155.304688 165.230469 Z M 154.039062 165.230469 " fill-opacity="1" fill-rule="nonzero"/><path fill="#fbba52" d="M 157.925781 165.230469 C 157.925781 163.957031 158.449219 162.804688 159.285156 161.96875 L 159.285156 161.957031 C 160.121094 161.121094 161.273438 160.609375 162.558594 160.609375 L 162.558594 161.875 C 161.628906 161.875 160.78125 162.25 160.175781 162.855469 C 159.570312 163.464844 159.191406 164.300781 159.191406 165.230469 Z M 157.925781 165.230469 " fill-opacity="1" fill-rule="nonzero"/><g clip-path="url(#91cab80616)"><path fill="#fbba52" d="M 112.554688 215.234375 C 140.167969 215.234375 162.558594 192.84375 162.558594 165.230469 L 141.933594 165.230469 C 141.933594 181.460938 128.777344 194.613281 112.554688 194.613281 Z M 112.554688 215.234375 " fill-opacity="1" fill-rule="evenodd"/></g><g clip-path="url(#e2242e95a2)"><path fill="#1d3c59" d="M 137.554688 165.230469 C 137.554688 179.039062 126.363281 190.230469 112.554688 190.230469 L 112.554688 165.230469 Z M 137.554688 165.230469 " fill-opacity="1" fill-rule="evenodd"/></g><g fill="#494848" fill-opacity="1"><g transform="translate(117.967629, 258.460838)"><g><path d="M 26.90625 -35.984375 C 25.484375 -35.984375 24.6875 -35.171875 24.6875 -34.09375 C 24.6875 -33.015625 25.140625 -32.5625 25.9375 -32.21875 C 27.9375 -31.59375 28.21875 -30.78125 27.375 -28.515625 L 20.8125 -11.578125 L 14.078125 -28.90625 C 13.171875 -31.1875 13.859375 -31.875 15.109375 -32.21875 C 15.96875 -32.78125 16.359375 -33.359375 16.359375 -33.984375 C 16.359375 -35.40625 15.5625 -35.984375 14.375 -35.984375 L 2.5625 -35.984375 C 1.375 -35.984375 0.5625 -35.40625 0.5625 -33.984375 C 0.5625 -33.1875 0.90625 -32.5 1.59375 -32.21875 C 3.078125 -31.8125 3.703125 -31.078125 4.734375 -28.515625 L 15.796875 -1.484375 C 16.359375 -0.171875 17.453125 0.453125 18.640625 0.453125 C 19.90625 0.453125 20.921875 -0.171875 21.5 -1.484375 L 32.5 -29.53125 C 33.234375 -31.53125 33.984375 -31.984375 35.34375 -32.21875 C 36.265625 -32.4375 36.78125 -33.1875 36.78125 -34.09375 C 36.78125 -35.0625 36.203125 -35.984375 34.78125 -35.984375 Z M 26.90625 -35.984375 "/></g></g></g><g fill="#494848" fill-opacity="1"><g transform="translate(153.257538, 258.460838)"><g><path d="M 13.6875 0 C 15.109375 0 15.671875 -0.796875 15.671875 -2 C 15.671875 -2.5625 15.453125 -3.078125 15.046875 -3.484375 C 13.40625 -4.21875 12.828125 -5.015625 12.765625 -6.609375 L 12.765625 -29.359375 C 12.828125 -30.953125 13.40625 -31.75 15.046875 -32.4375 C 15.453125 -32.84375 15.671875 -33.359375 15.671875 -33.921875 C 15.671875 -35.125 15.109375 -35.921875 13.6875 -35.921875 L 3.59375 -35.921875 C 2.171875 -35.921875 1.59375 -35.125 1.59375 -33.921875 C 1.59375 -33.359375 1.828125 -32.84375 2.28125 -32.4375 C 3.875 -31.75 4.453125 -30.953125 4.453125 -29.359375 L 4.453125 -6.609375 C 4.453125 -5.015625 3.875 -4.21875 2.28125 -3.484375 C 1.828125 -3.078125 1.59375 -2.5625 1.59375 -2 C 1.59375 -0.796875 2.171875 0 3.59375 0 Z M 13.6875 0 "/></g></g></g><g fill="#494848" fill-opacity="1"><g transform="translate(168.479306, 258.460838)"><g><path d="M 26.90625 -35.984375 C 25.484375 -35.984375 24.6875 -35.171875 24.6875 -34.09375 C 24.6875 -33.015625 25.140625 -32.5625 25.9375 -32.21875 C 27.9375 -31.59375 28.21875 -30.78125 27.375 -28.515625 L 20.8125 -11.578125 L 14.078125 -28.90625 C 13.171875 -31.1875 13.859375 -31.875 15.109375 -32.21875 C 15.96875 -32.78125 16.359375 -33.359375 16.359375 -33.984375 C 16.359375 -35.40625 15.5625 -35.984375 14.375 -35.984375 L 2.5625 -35.984375 C 1.375 -35.984375 0.5625 -35.40625 0.5625 -33.984375 C 0.5625 -33.1875 0.90625 -32.5 1.59375 -32.21875 C 3.078125 -31.8125 3.703125 -31.078125 4.734375 -28.515625 L 15.796875 -1.484375 C 16.359375 -0.171875 17.453125 0.453125 18.640625 0.453125 C 19.90625 0.453125 20.921875 -0.171875 21.5 -1.484375 L 32.5 -29.53125 C 33.234375 -31.53125 33.984375 -31.984375 35.34375 -32.21875 C 36.265625 -32.4375 36.78125 -33.1875 36.78125 -34.09375 C 36.78125 -35.0625 36.203125 -35.984375 34.78125 -35.984375 Z M 26.90625 -35.984375 "/></g></g></g><g fill="#494848" fill-opacity="1"><g transform="translate(203.769215, 258.460838)"><g><path d="M 13.6875 0 C 15.109375 0 15.671875 -0.796875 15.671875 -2 C 15.671875 -2.5625 15.453125 -3.078125 15.046875 -3.484375 C 13.40625 -4.21875 12.828125 -5.015625 12.765625 -6.609375 L 12.765625 -29.359375 C 12.828125 -30.953125 13.40625 -31.75 15.046875 -32.4375 C 15.453125 -32.84375 15.671875 -33.359375 15.671875 -33.921875 C 15.671875 -35.125 15.109375 -35.921875 13.6875 -35.921875 L 3.59375 -35.921875 C 2.171875 -35.921875 1.59375 -35.125 1.59375 -33.921875 C 1.59375 -33.359375 1.828125 -32.84375 2.28125 -32.4375 C 3.875 -31.75 4.453125 -30.953125 4.453125 -29.359375 L 4.453125 -6.609375 C 4.453125 -5.015625 3.875 -4.21875 2.28125 -3.484375 C 1.828125 -3.078125 1.59375 -2.5625 1.59375 -2 C 1.59375 -0.796875 2.171875 0 3.59375 0 Z M 13.6875 0 "/></g></g></g><g fill="#494848" fill-opacity="1"><g transform="translate(218.990983, 258.460838)"><g><path d="M 18.765625 0 C 30.453125 0 36.140625 -5.8125 36.140625 -17.953125 C 36.140625 -30.15625 30.453125 -35.921875 18.765625 -35.921875 L 3.53125 -35.921875 C 2.171875 -35.921875 1.546875 -35.125 1.59375 -33.921875 C 1.59375 -33.359375 1.828125 -32.84375 2.21875 -32.4375 C 3.765625 -31.75 4.453125 -30.953125 4.453125 -29.484375 L 4.453125 -6.5 C 4.453125 -4.953125 3.765625 -4.21875 2.21875 -3.484375 C 1.828125 -3.078125 1.59375 -2.5625 1.59375 -2 C 1.546875 -0.796875 2.171875 0 3.53125 0 Z M 12.765625 -31.59375 L 18.46875 -31.59375 C 24.6875 -31.59375 27.765625 -28.390625 27.765625 -18.078125 C 27.765625 -7.75 24.40625 -4.390625 17.390625 -4.390625 L 12.765625 -4.390625 Z M 12.765625 -31.59375 "/></g></g></g><g fill="#000000" fill-opacity="1"><g transform="translate(160.790738, 276.101815)"><g><path d="M 7.0625 -0.625 C 6.820312 -0.457031 6.492188 -0.296875 6.078125 -0.140625 C 5.660156 0.015625 5.207031 0.09375 4.71875 0.09375 C 3.882812 0.09375 3.15625 -0.0859375 2.53125 -0.453125 C 1.914062 -0.816406 1.441406 -1.304688 1.109375 -1.921875 C 0.773438 -2.535156 0.609375 -3.210938 0.609375 -3.953125 C 0.609375 -4.753906 0.773438 -5.46875 1.109375 -6.09375 C 1.441406 -6.726562 1.90625 -7.222656 2.5 -7.578125 C 3.101562 -7.941406 3.789062 -8.125 4.5625 -8.125 C 5.03125 -8.125 5.460938 -8.0625 5.859375 -7.9375 C 6.265625 -7.8125 6.617188 -7.648438 6.921875 -7.453125 L 6.421875 -6.25 C 5.828125 -6.675781 5.21875 -6.890625 4.59375 -6.890625 C 4.125 -6.890625 3.6875 -6.757812 3.28125 -6.5 C 2.875 -6.25 2.546875 -5.90625 2.296875 -5.46875 C 2.054688 -5.03125 1.9375 -4.550781 1.9375 -4.03125 C 1.9375 -3.476562 2.046875 -2.984375 2.265625 -2.546875 C 2.492188 -2.109375 2.816406 -1.765625 3.234375 -1.515625 C 3.648438 -1.265625 4.128906 -1.140625 4.671875 -1.140625 C 5.066406 -1.140625 5.421875 -1.195312 5.734375 -1.3125 C 6.046875 -1.4375 6.304688 -1.59375 6.515625 -1.78125 Z M 7.0625 -0.625 "/></g></g></g><g fill="#000000" fill-opacity="1"><g transform="translate(172.869986, 276.101815)"><g><path d="M 5.5 0 L 3.6875 -2.796875 L 2.390625 -2.796875 L 2.390625 0 L 1.109375 0 L 1.109375 -8.03125 L 3.359375 -8.03125 C 4.253906 -8.03125 4.972656 -7.800781 5.515625 -7.34375 C 6.054688 -6.882812 6.328125 -6.253906 6.328125 -5.453125 C 6.328125 -4.953125 6.222656 -4.488281 6.015625 -4.0625 C 5.804688 -3.644531 5.476562 -3.320312 5.03125 -3.09375 L 6.984375 0 Z M 2.390625 -4.03125 L 3.546875 -4.03125 C 4.054688 -4.03125 4.425781 -4.171875 4.65625 -4.453125 C 4.894531 -4.734375 5.015625 -5.050781 5.015625 -5.40625 C 5.015625 -5.613281 4.96875 -5.820312 4.875 -6.03125 C 4.789062 -6.238281 4.640625 -6.414062 4.421875 -6.5625 C 4.210938 -6.71875 3.929688 -6.796875 3.578125 -6.796875 L 2.390625 -6.796875 Z M 2.390625 -4.03125 "/></g></g></g><g fill="#000000" fill-opacity="1"><g transform="translate(184.67345, 276.101815)"><g><path d="M 5.234375 -1.890625 L 2.3125 -1.890625 L 1.53125 0 L 0.265625 0 L 3.8125 -8.359375 L 3.890625 -8.359375 L 7.453125 0 L 5.96875 0 Z M 4.796875 -2.984375 L 3.796875 -5.53125 L 2.75 -2.984375 Z M 4.796875 -2.984375 "/></g></g></g><g fill="#000000" fill-opacity="1"><g transform="translate(196.796827, 276.101815)"><g><path d="M 5.984375 -8.03125 L 5.984375 -6.796875 L 2.390625 -6.796875 L 2.390625 -4.53125 L 5.515625 -4.53125 L 5.515625 -3.3125 L 2.390625 -3.3125 L 2.390625 0 L 1.109375 0 L 1.109375 -8.03125 Z M 5.984375 -8.03125 "/></g></g></g><g fill="#000000" fill-opacity="1"><g transform="translate(207.750875, 276.101815)"><g><path d="M 5.90625 -8.03125 L 5.90625 -6.796875 L 3.828125 -6.796875 L 3.828125 0 L 2.546875 0 L 2.546875 -6.796875 L 0.53125 -6.796875 L 0.53125 -8.03125 Z M 5.90625 -8.03125 "/></g></g></g></svg>